<svg width="350" height="58" viewBox="0 0 350 58" fill="none" xmlns="http://www.w3.org/2000/svg">
<g clip-path="url(#clip0_2336_14798)">
<rect width="350" height="58" rx="15" fill="white"/>
<path d="M126.668 34H128.99L131.575 25.5405H132.22V23.4312H130.337L126.668 34ZM128.631 31.4365H134.6L134.058 29.7812H129.173L128.631 31.4365ZM134.285 34H136.614L132.938 23.4312H131.707V25.5405L134.285 34ZM138.196 36.6733H140.335V32.7109H140.467C140.604 33.0039 140.789 33.2554 141.023 33.4653C141.263 33.6753 141.539 33.8389 141.851 33.9561C142.168 34.0684 142.513 34.1245 142.884 34.1245C143.562 34.1245 144.146 33.9585 144.634 33.6265C145.123 33.2944 145.499 32.8184 145.762 32.1982C146.026 31.5781 146.158 30.8359 146.158 29.9717V29.957C146.158 29.0977 146.023 28.3604 145.755 27.7451C145.491 27.125 145.115 26.6465 144.627 26.3096C144.139 25.9727 143.558 25.8042 142.884 25.8042C142.503 25.8042 142.156 25.8604 141.844 25.9727C141.531 26.0801 141.258 26.2363 141.023 26.4414C140.794 26.6465 140.608 26.8931 140.467 27.1812H140.335V25.936H138.196V36.6733ZM142.151 32.3521C141.78 32.3521 141.456 32.2568 141.177 32.0664C140.904 31.876 140.691 31.6025 140.54 31.2461C140.389 30.8848 140.313 30.46 140.313 29.9717V29.957C140.313 29.459 140.386 29.0342 140.533 28.6826C140.684 28.3262 140.896 28.0527 141.17 27.8623C141.448 27.6719 141.775 27.5767 142.151 27.5767C142.532 27.5767 142.857 27.6719 143.125 27.8623C143.399 28.0527 143.609 28.3262 143.755 28.6826C143.907 29.0391 143.982 29.4639 143.982 29.957V29.9717C143.982 30.4648 143.907 30.8896 143.755 31.2461C143.609 31.6025 143.399 31.876 143.125 32.0664C142.857 32.2568 142.532 32.3521 142.151 32.3521ZM147.908 36.6733H150.047V32.7109H150.179C150.315 33.0039 150.501 33.2554 150.735 33.4653C150.975 33.6753 151.25 33.8389 151.563 33.9561C151.88 34.0684 152.225 34.1245 152.596 34.1245C153.274 34.1245 153.858 33.9585 154.346 33.6265C154.834 33.2944 155.21 32.8184 155.474 32.1982C155.738 31.5781 155.87 30.8359 155.87 29.9717V29.957C155.87 29.0977 155.735 28.3604 155.467 27.7451C155.203 27.125 154.827 26.6465 154.339 26.3096C153.851 25.9727 153.27 25.8042 152.596 25.8042C152.215 25.8042 151.868 25.8604 151.556 25.9727C151.243 26.0801 150.97 26.2363 150.735 26.4414C150.506 26.6465 150.32 26.8931 150.179 27.1812H150.047V25.936H147.908V36.6733ZM151.863 32.3521C151.492 32.3521 151.167 32.2568 150.889 32.0664C150.616 31.876 150.403 31.6025 150.252 31.2461C150.101 30.8848 150.025 30.46 150.025 29.9717V29.957C150.025 29.459 150.098 29.0342 150.245 28.6826C150.396 28.3262 150.608 28.0527 150.882 27.8623C151.16 27.6719 151.487 27.5767 151.863 27.5767C152.244 27.5767 152.569 27.6719 152.837 27.8623C153.111 28.0527 153.321 28.3262 153.467 28.6826C153.619 29.0391 153.694 29.4639 153.694 29.957V29.9717C153.694 30.4648 153.619 30.8896 153.467 31.2461C153.321 31.6025 153.111 31.876 152.837 32.0664C152.569 32.2568 152.244 32.3521 151.863 32.3521ZM157.693 34H159.832V22.8525H157.693V34ZM165.589 34.1685C166.18 34.1685 166.69 34.0952 167.12 33.9487C167.554 33.7974 167.916 33.6021 168.204 33.3628C168.497 33.1235 168.726 32.8672 168.892 32.5938C169.058 32.3154 169.173 32.0493 169.236 31.7954L169.251 31.7222H167.259L167.237 31.7661C167.188 31.8687 167.095 31.9834 166.958 32.1104C166.827 32.2324 166.651 32.3398 166.431 32.4326C166.211 32.5254 165.945 32.5718 165.633 32.5718C165.247 32.5718 164.915 32.4863 164.637 32.3154C164.358 32.1445 164.144 31.8979 163.992 31.5757C163.841 31.2534 163.765 30.8652 163.765 30.4111V29.5469C163.765 29.0781 163.841 28.6826 163.992 28.3604C164.148 28.0332 164.358 27.7866 164.622 27.6206C164.891 27.4497 165.196 27.3643 165.538 27.3643C165.884 27.3643 166.187 27.4473 166.446 27.6133C166.709 27.7744 166.915 28.0161 167.061 28.3384C167.212 28.6606 167.288 29.0635 167.288 29.5469V30.4038L168.292 29.1367H162.718V30.4771H169.317V29.8105C169.317 28.9951 169.163 28.2847 168.855 27.6792C168.548 27.0737 168.108 26.6025 167.537 26.2656C166.966 25.9287 166.287 25.7603 165.501 25.7603C164.72 25.7603 164.039 25.9336 163.458 26.2803C162.881 26.627 162.435 27.1152 162.117 27.7451C161.805 28.375 161.648 29.1172 161.648 29.9717V29.979C161.648 30.8433 161.807 31.5879 162.125 32.2129C162.442 32.8379 162.894 33.3213 163.479 33.6631C164.07 34 164.773 34.1685 165.589 34.1685ZM170.613 32.185V33.805H183.183V32.185H170.613ZM175.878 29.56V32.845H177.873V29.56H175.878ZM172.023 22.345V23.92H179.793V25.405H172.053V29.305H174.033V26.965H181.773V22.345H172.023ZM172.053 28.51V30.115H182.088V28.51H172.053ZM191.654 22.51V24.535C191.654 27.235 190.514 29.905 188.099 30.955L189.284 32.605C192.044 31.33 193.274 28.105 193.274 24.535V22.51H191.654ZM192.044 22.51V24.535C192.044 27.955 193.274 31.045 195.959 32.275L197.129 30.67C194.759 29.65 193.664 27.1 193.664 24.535V22.51H192.044ZM197.789 21.43V35.365H199.799V21.43H197.789ZM205.153 22.87V23.74C205.153 25.48 204.178 27.28 201.853 28.03L202.888 29.575C205.543 28.72 206.788 26.365 206.788 23.74V22.87H205.153ZM205.558 22.87V23.74C205.558 26.23 206.758 28.495 209.353 29.335L210.373 27.79C208.123 27.07 207.178 25.375 207.178 23.74V22.87H205.558ZM202.393 22.255V23.845H209.893V22.255H202.393ZM211.003 21.445V29.815H212.998V21.445H211.003ZM212.443 24.805V26.44H214.843V24.805H212.443ZM203.728 30.415V32.02H211.003V35.335H212.998V30.415H203.728ZM224.772 21.445V35.335H226.752V21.445H224.772ZM226.302 26.86V28.525H228.762V26.86H226.302ZM215.802 23.5V25.09H223.887V23.5H215.802ZM219.867 25.87C217.842 25.87 216.342 27.25 216.342 29.185C216.342 31.12 217.842 32.5 219.867 32.5C221.892 32.5 223.392 31.12 223.392 29.185C223.392 27.25 221.892 25.87 219.867 25.87ZM219.867 27.49C220.812 27.49 221.487 28.12 221.487 29.185C221.487 30.25 220.812 30.88 219.867 30.88C218.922 30.88 218.247 30.25 218.247 29.185C218.247 28.12 218.922 27.49 219.867 27.49ZM218.862 21.67V24.1H220.857V21.67H218.862ZM239.231 21.445V35.335H241.241V21.445H239.231ZM235.136 22.885V23.245C235.136 26.965 233.696 29.485 229.706 31.405L230.741 32.995C235.676 30.61 237.116 27.13 237.116 22.885H235.136ZM230.441 22.885V24.46H236.081V22.885H230.441Z" fill="black"/>
</g>
<path d="M54.3961 29.9381C54.4382 34.478 58.3779 35.9888 58.4215 36.0081C58.3882 36.1146 57.792 38.1611 56.3459 40.2749C55.0958 42.1025 53.7984 43.9233 51.7546 43.961C49.7463 43.998 49.1006 42.7698 46.8046 42.7698C44.5092 42.7698 43.7918 43.9233 41.8907 43.998C39.9179 44.0727 38.4157 42.0218 37.1552 40.2009C34.5796 36.4764 32.6113 29.6762 35.2542 25.0859C36.5671 22.8064 38.9135 21.3629 41.4603 21.3259C43.3975 21.2889 45.226 22.6295 46.4103 22.6295C47.5938 22.6295 49.8159 21.0173 52.1518 21.2541C53.1297 21.2948 55.8747 21.6492 57.6374 24.2299C57.4954 24.318 54.362 26.1425 54.3961 29.9381M50.6218 18.7899C51.6692 17.5218 52.3741 15.7565 52.1818 14C50.6721 14.0607 48.8465 15.0063 47.7636 16.2737C46.7932 17.3961 45.9432 19.1925 46.1726 20.9142C47.8553 21.0444 49.5744 20.0589 50.6218 18.79" fill="black"/>
<defs>
<clipPath id="clip0_2336_14798">
<rect width="350" height="58" fill="white"/>
</clipPath>
</defs>
</svg>
