<svg width="350" height="58" viewBox="0 0 350 58" fill="none" xmlns="http://www.w3.org/2000/svg">
<g clip-path="url(#clip0_3077_1018)">
<rect width="350" height="58" rx="15" fill="#FEE500"/>
<path d="M133.221 22.78V23.02C133.221 26.92 132.231 29.575 127.911 31.75L128.976 33.265C134.151 30.64 135.171 27.07 135.171 22.78H133.221ZM128.766 22.78V24.355H134.406V22.78H128.766ZM133.266 26.185L128.046 26.485L128.286 28.195L133.266 27.715V26.185ZM136.851 21.43V35.32H138.861V21.43H136.851ZM138.336 26.74V28.375H140.781V26.74H138.336ZM147.02 22.78V23.02C147.02 26.92 146.03 29.575 141.71 31.75L142.775 33.265C147.95 30.64 148.97 27.07 148.97 22.78H147.02ZM142.565 22.78V24.355H148.205V22.78H142.565ZM147.065 26.185L141.845 26.485L142.085 28.195L147.065 27.715V26.185ZM150.65 21.43V35.32H152.66V21.43H150.65ZM152.135 26.74V28.375H154.58V26.74H152.135ZM160.849 29.26V32.425H162.844V29.26H160.849ZM161.854 22.15C158.884 22.15 156.664 23.665 156.664 25.975C156.664 28.315 158.884 29.815 161.854 29.815C164.824 29.815 167.044 28.315 167.044 25.975C167.044 23.665 164.824 22.15 161.854 22.15ZM161.854 23.725C163.759 23.725 165.079 24.565 165.079 25.975C165.079 27.415 163.759 28.24 161.854 28.24C159.949 28.24 158.629 27.415 158.629 25.975C158.629 24.565 159.949 23.725 161.854 23.725ZM155.584 32.11V33.73H168.154V32.11H155.584ZM169.383 32.185V33.805H181.953V32.185H169.383ZM174.648 29.56V32.845H176.643V29.56H174.648ZM170.793 22.345V23.92H178.563V25.405H170.823V29.305H172.803V26.965H180.543V22.345H170.793ZM170.823 28.51V30.115H180.858V28.51H170.823ZM190.424 22.51V24.535C190.424 27.235 189.284 29.905 186.869 30.955L188.054 32.605C190.814 31.33 192.044 28.105 192.044 24.535V22.51H190.424ZM190.814 22.51V24.535C190.814 27.955 192.044 31.045 194.729 32.275L195.899 30.67C193.529 29.65 192.434 27.1 192.434 24.535V22.51H190.814ZM196.559 21.43V35.365H198.569V21.43H196.559ZM203.922 22.87V23.74C203.922 25.48 202.947 27.28 200.622 28.03L201.657 29.575C204.312 28.72 205.557 26.365 205.557 23.74V22.87H203.922ZM204.327 22.87V23.74C204.327 26.23 205.527 28.495 208.122 29.335L209.142 27.79C206.892 27.07 205.947 25.375 205.947 23.74V22.87H204.327ZM201.162 22.255V23.845H208.662V22.255H201.162ZM209.772 21.445V29.815H211.767V21.445H209.772ZM211.212 24.805V26.44H213.612V24.805H211.212ZM202.497 30.415V32.02H209.772V35.335H211.767V30.415H202.497ZM223.541 21.445V35.335H225.521V21.445H223.541ZM225.071 26.86V28.525H227.531V26.86H225.071ZM214.571 23.5V25.09H222.656V23.5H214.571ZM218.636 25.87C216.611 25.87 215.111 27.25 215.111 29.185C215.111 31.12 216.611 32.5 218.636 32.5C220.661 32.5 222.161 31.12 222.161 29.185C222.161 27.25 220.661 25.87 218.636 25.87ZM218.636 27.49C219.581 27.49 220.256 28.12 220.256 29.185C220.256 30.25 219.581 30.88 218.636 30.88C217.691 30.88 217.016 30.25 217.016 29.185C217.016 28.12 217.691 27.49 218.636 27.49ZM217.631 21.67V24.1H219.626V21.67H217.631ZM238 21.445V35.335H240.01V21.445H238ZM233.905 22.885V23.245C233.905 26.965 232.465 29.485 228.475 31.405L229.51 32.995C234.445 30.61 235.885 27.13 235.885 22.885H233.905ZM229.21 22.885V24.46H234.85V22.885H229.21Z" fill="black"/>
</g>
<g clip-path="url(#clip1_3077_1018)">
<path fill-rule="evenodd" clip-rule="evenodd" d="M46 17.001C38.82 17.001 33 21.8113 33 27.7456C33 31.4348 35.251 34.6895 38.6788 36.6239L37.2365 42.2603C37.1091 42.7598 37.6416 43.1561 38.0505 42.8674L44.3726 38.4031C44.9061 38.4581 45.4483 38.4902 46 38.4902C53.1797 38.4902 58.9567 33.6791 58.9567 27.7456C58.9567 21.8113 53.1797 17.001 46 17.001Z" fill="black"/>
</g>
<defs>
<clipPath id="clip0_3077_1018">
<rect width="350" height="58" fill="white"/>
</clipPath>
<clipPath id="clip1_3077_1018">
<rect width="26" height="26" fill="white" transform="translate(33 17)"/>
</clipPath>
</defs>
</svg>
