<svg width="352" height="60" viewBox="0 0 352 60" fill="none" xmlns="http://www.w3.org/2000/svg">
<g clip-path="url(#clip0_3382_1010)">
<rect x="1" y="1" width="350" height="58" rx="15" fill="#252632"/>
<path d="M138.496 22.43V36.365H140.506V22.43H138.496ZM133.021 23.405C130.921 23.405 129.376 25.325 129.376 28.355C129.376 31.415 130.921 33.335 133.021 33.335C135.121 33.335 136.666 31.415 136.666 28.355C136.666 25.325 135.121 23.405 133.021 23.405ZM133.021 25.22C134.056 25.22 134.746 26.315 134.746 28.355C134.746 30.425 134.056 31.535 133.021 31.535C131.986 31.535 131.281 30.425 131.281 28.355C131.281 26.315 131.986 25.22 133.021 25.22ZM143.16 23.87V32.87H148.65V23.87H143.16ZM146.79 25.43V31.31H145.02V25.43H146.79ZM152.805 22.445V36.335H154.71V22.445H152.805ZM147.645 27.485V29.09H150.765V27.485H147.645ZM149.97 22.655V35.705H151.845V22.655H149.97ZM160.484 22.85C158.369 22.85 156.779 24.17 156.779 26.03C156.779 27.875 158.369 29.195 160.484 29.195C162.599 29.195 164.189 27.875 164.189 26.03C164.189 24.17 162.599 22.85 160.484 22.85ZM160.484 24.47C161.504 24.47 162.254 25.04 162.254 26.03C162.254 27.02 161.504 27.59 160.484 27.59C159.464 27.59 158.699 27.02 158.699 26.03C158.699 25.04 159.464 24.47 160.484 24.47ZM166.109 22.445V29.39H168.119V22.445H166.109ZM158.849 29.96V31.505H166.139V32.33H158.879V35.45H160.829V33.77H168.119V29.96H158.849ZM158.879 34.64V36.185H168.464V34.64H158.879ZM170.383 33.185V34.805H182.953V33.185H170.383ZM175.648 30.56V33.845H177.643V30.56H175.648ZM171.793 23.345V24.92H179.563V26.405H171.823V30.305H173.803V27.965H181.543V23.345H171.793ZM171.823 29.51V31.115H181.858V29.51H171.823ZM191.424 23.51V25.535C191.424 28.235 190.284 30.905 187.869 31.955L189.054 33.605C191.814 32.33 193.044 29.105 193.044 25.535V23.51H191.424ZM191.814 23.51V25.535C191.814 28.955 193.044 32.045 195.729 33.275L196.899 31.67C194.529 30.65 193.434 28.1 193.434 25.535V23.51H191.814ZM197.559 22.43V36.365H199.569V22.43H197.559ZM204.922 23.87V24.74C204.922 26.48 203.947 28.28 201.622 29.03L202.657 30.575C205.312 29.72 206.557 27.365 206.557 24.74V23.87H204.922ZM205.327 23.87V24.74C205.327 27.23 206.527 29.495 209.122 30.335L210.142 28.79C207.892 28.07 206.947 26.375 206.947 24.74V23.87H205.327ZM202.162 23.255V24.845H209.662V23.255H202.162ZM210.772 22.445V30.815H212.767V22.445H210.772ZM212.212 25.805V27.44H214.612V25.805H212.212ZM203.497 31.415V33.02H210.772V36.335H212.767V31.415H203.497ZM224.541 22.445V36.335H226.521V22.445H224.541ZM226.071 27.86V29.525H228.531V27.86H226.071ZM215.571 24.5V26.09H223.656V24.5H215.571ZM219.636 26.87C217.611 26.87 216.111 28.25 216.111 30.185C216.111 32.12 217.611 33.5 219.636 33.5C221.661 33.5 223.161 32.12 223.161 30.185C223.161 28.25 221.661 26.87 219.636 26.87ZM219.636 28.49C220.581 28.49 221.256 29.12 221.256 30.185C221.256 31.25 220.581 31.88 219.636 31.88C218.691 31.88 218.016 31.25 218.016 30.185C218.016 29.12 218.691 28.49 219.636 28.49ZM218.631 22.67V25.1H220.626V22.67H218.631ZM239 22.445V36.335H241.01V22.445H239ZM234.905 23.885V24.245C234.905 27.965 233.465 30.485 229.475 32.405L230.51 33.995C235.445 31.61 236.885 28.13 236.885 23.885H234.905ZM230.21 23.885V25.46H235.85V23.885H230.21Z" fill="white"/>
<path d="M56.3125 38.375H37.9375C37.2143 38.375 36.625 37.787 36.625 37.0625V24.2656L46.3375 31.55C46.5711 31.7259 46.8481 31.8125 47.125 31.8125C47.4019 31.8125 47.6789 31.7259 47.9125 31.55L57.625 24.2656V37.0625C57.625 37.787 57.0357 38.375 56.3125 38.375ZM55.4371 22.625L47.125 28.8594L38.8129 22.625H55.4371ZM56.3125 20H37.9375C35.7666 20 34 21.7666 34 23.9375V37.0625C34 39.2334 35.7666 41 37.9375 41H56.3125C58.4834 41 60.25 39.2334 60.25 37.0625V23.9375C60.25 21.7666 58.4834 20 56.3125 20Z" fill="#FEFEFE"/>
</g>
<rect x="1" y="1" width="350" height="58" stroke="black" stroke-miterlimit="0" stroke-linejoin="bevel"/>
<defs>
<clipPath id="clip0_3382_1010">
<rect x="1" y="1" width="350" height="58" fill="white"/>
</clipPath>
</defs>
</svg>
